<?xml version="1.0"?>
<svg xmlns="http://www.w3.org/2000/svg" viewBox="0 0 16 16">
    <path style="line-height:normal;text-indent:0;text-align:start;text-decoration-line:none;text-decoration-style:solid;text-decoration-color:#000;text-transform:none;block-progression:tb;isolation:auto;mix-blend-mode:normal" d="M 7 0 L 7 1.0253906 C 3.8148491 1.2695117 1.2695117 3.8148491 1.0253906 7 L 0 7 L 0 8 L 1.0253906 8 C 1.2695117 11.185151 3.8148491 13.730488 7 13.974609 L 7 15 L 8 15 L 8 13.974609 C 11.185151 13.730488 13.730488 11.185151 13.974609 8 L 15 8 L 15 7 L 13.974609 7 C 13.730488 3.8148491 11.185151 1.2695117 8 1.0253906 L 8 0 L 7 0 z M 7 2.0253906 L 7 3 L 8 3 L 8 2.0253906 C 10.642248 2.2628663 12.737134 4.3577521 12.974609 7 L 12 7 L 12 8 L 12.974609 8 C 12.737134 10.642248 10.642248 12.737134 8 12.974609 L 8 12 L 7 12 L 7 12.974609 C 4.3577521 12.737134 2.2628663 10.642248 2.0253906 8 L 3 8 L 3 7 L 2.0253906 7 C 2.2628663 4.3577521 4.3577521 2.2628663 7 2.0253906 z" font-weight="400" font-family="sans-serif" white-space="normal" overflow="visible"/>
</svg>
